<?xml version="1.0" encoding="utf-8"?>
<!-- Generator: Adobe Illustrator 26.5.0, SVG Export Plug-In . SVG Version: 6.00 Build 0)  -->
<svg version="1.1" id="Layer_1" xmlns="http://www.w3.org/2000/svg" xmlns:xlink="http://www.w3.org/1999/xlink" x="0px" y="0px"
	 viewBox="0 0 360 360" style="enable-background:new 0 0 360 360;" xml:space="preserve">
<style type="text/css">
	.st0{fill:url(#SVGID_1_);}
	.st1{fill:url(#SVGID_00000023241099670008674870000003174268211385643689_);}
	.st2{fill:#FFFFFF;}
	.st3{fill:url(#SVGID_00000056429858525764834950000011441443373641838485_);}
	.st4{fill:url(#SVGID_00000067236331601469826270000012153059305072511649_);}
	.st5{fill:url(#SVGID_00000108285840640000791130000015252004582983503004_);}
	.st6{fill:url(#SVGID_00000174584483157226059760000012531654109339324802_);}
	.st7{fill:url(#SVGID_00000018199443702787070700000005114613011923483831_);}
	.st8{fill:url(#SVGID_00000133516571991135416400000008000246569644881037_);}
	.st9{fill:url(#SVGID_00000171683199961746914850000000509666628666548352_);}
	.st10{fill:url(#SVGID_00000084530580039163350010000000905571735388813209_);}
	.st11{fill:url(#SVGID_00000050637607172885460350000001377044195616706735_);}
	.st12{fill:none;stroke:#000000;stroke-width:1.2491;stroke-miterlimit:10;}
	.st13{fill:#FFFFFF;stroke:#000000;stroke-miterlimit:10;}
</style>
<g>
	<linearGradient id="SVGID_1_" gradientUnits="userSpaceOnUse" x1="140.8159" y1="207.6996" x2="24.2254" y2="207.6996">
		<stop  offset="0" style="stop-color:#FFF33B"/>
		<stop  offset="0.0595" style="stop-color:#FFE029"/>
		<stop  offset="0.1303" style="stop-color:#FFD217"/>
		<stop  offset="0.2032" style="stop-color:#FEC90E"/>
		<stop  offset="0.2809" style="stop-color:#FDC70C"/>
		<stop  offset="0.5689" style="stop-color:#F3903F"/>
		<stop  offset="0.8276" style="stop-color:#ED683C"/>
		<stop  offset="1" style="stop-color:#B72F2B"/>
	</linearGradient>
	<path class="st0" d="M24.23,212.7v-9.99h116.59c-2.3,3.34-4.05,6.62-5.31,9.99H24.23z"/>
	<path d="M139.64,203.33c-1.92,2.91-3.43,5.8-4.57,8.74H24.85v-8.74H139.64 M142.02,202.08H23.6v11.24h112.34
		C137.43,209.21,139.55,205.51,142.02,202.08L142.02,202.08z"/>
</g>
<g>
	
		<linearGradient id="SVGID_00000163779642276115954110000008438638932517323164_" gradientUnits="userSpaceOnUse" x1="294.7497" y1="207.6996" x2="159.2704" y2="207.6996">
		<stop  offset="0" style="stop-color:#FFF33B"/>
		<stop  offset="0.0595" style="stop-color:#FFE029"/>
		<stop  offset="0.1303" style="stop-color:#FFD217"/>
		<stop  offset="0.2032" style="stop-color:#FEC90E"/>
		<stop  offset="0.2809" style="stop-color:#FDC70C"/>
		<stop  offset="0.5689" style="stop-color:#F3903F"/>
		<stop  offset="0.8276" style="stop-color:#ED683C"/>
		<stop  offset="1" style="stop-color:#B72F2B"/>
	</linearGradient>
	<path style="fill:url(#SVGID_00000163779642276115954110000008438638932517323164_);" d="M159.27,212.7
		c0.83-1.62,1.63-3.25,2.41-4.84l0.91-1.85c0.45-0.94,0.87-2,1.3-3.3h124.79c1.46,1.47,3.25,2.84,5.33,4.08l0.12,0.07
		c0.09,0.05,0.18,0.09,0.28,0.12c-0.19,1.99-0.08,3.91,0.35,5.72H159.27z"/>
	<path d="M288.42,203.33c1.45,1.43,3.21,2.77,5.24,3.98l0.01,0.01l0.07,0.05c-0.12,1.62-0.04,3.2,0.24,4.71H160.29
		c0.66-1.32,1.31-2.64,1.94-3.93l0.14-0.29l0.78-1.59c0.41-0.86,0.8-1.81,1.19-2.94H288.42 M288.94,202.08h-125.5
		c-0.4,1.24-0.85,2.48-1.41,3.65l-0.77,1.58c-0.98,2-1.97,4.02-3,6.01h137.31c-0.49-1.67-0.84-3.99-0.47-6.85
		c-0.23-0.01-0.46-0.06-0.68-0.17l-0.04-0.02l-0.04-0.02C292.2,204.98,290.41,203.6,288.94,202.08L288.94,202.08z"/>
</g>
<g>
	<g>
		<g>
			<path d="M301.51,215.12c0,0.21,0.04,0.42,0.11,0.61c-0.12,0.06-0.24,0.08-0.37,0.08c-0.41,0-0.77-0.26-0.93-0.64
				c0-0.01-0.01-0.01-0.01-0.02c0.29-0.44,0.6-0.87,0.92-1.3c-0.07,0.17-0.14,0.34-0.21,0.52c-0.03,0.07-0.03,0.13,0,0.19
				c-0.02,0.01-0.03,0.02-0.04,0.02c-0.26,0.24-0.01,0.59,0.26,0.59c0.08,0,0.16-0.03,0.23-0.09c0.01-0.01,0.02-0.02,0.03-0.03
				V215.12z"/>
			<path class="st2" d="M301.51,215.12v-0.06c-0.01,0.01-0.02,0.02-0.03,0.03c-0.07,0.06-0.15,0.09-0.23,0.09
				c-0.27,0-0.52-0.35-0.26-0.59c0.01-0.01,0.02-0.01,0.04-0.02c-0.03-0.06-0.03-0.12,0-0.19c0.06-0.18,0.13-0.36,0.21-0.52
				c-0.32,0.42-0.62,0.86-0.92,1.3c0,0.01,0.01,0.01,0.01,0.02c0.16,0.38,0.52,0.64,0.93,0.64c0.13,0,0.26-0.02,0.37-0.08
				C301.55,215.54,301.51,215.33,301.51,215.12z"/>
		</g>
	</g>
</g>
<g>
	<g>
		<g>
			
				<linearGradient id="SVGID_00000151525288483016759550000015333064929755875986_" gradientUnits="userSpaceOnUse" x1="296.7816" y1="168.1683" x2="333.2245" y2="168.1683">
				<stop  offset="0" style="stop-color:#FFF33B"/>
				<stop  offset="0.0595" style="stop-color:#FFE029"/>
				<stop  offset="0.1303" style="stop-color:#FFD217"/>
				<stop  offset="0.2032" style="stop-color:#FEC90E"/>
				<stop  offset="0.2809" style="stop-color:#FDC70C"/>
				<stop  offset="0.5689" style="stop-color:#F3903F"/>
				<stop  offset="0.8276" style="stop-color:#ED683C"/>
				<stop  offset="1" style="stop-color:#B72F2B"/>
			</linearGradient>
			<path style="fill:url(#SVGID_00000151525288483016759550000015333064929755875986_);" d="M298.21,214.94
				c-1.14-2.05-5.36-11.95,9.46-26.39c6.94-6.76,6.83-16.34,6.71-26.48c-0.17-13.98-0.35-29.74,18.85-40.68
				c-1.63,1.42-3.87,3.62-5.93,6.42c-4.92,6.72-6.35,13.78-4.15,20.41l0.31,0.93l0.71-0.68c1.09-1.04,4.03-4.33,8.26-12.78
				c0,2.35-0.22,4.69-0.68,6.97c-0.62,3.17-1.47,5.17-2.22,6.94l-0.03,0.07c-0.74,1.77-1.38,3.3-1.72,5.56
				c-0.43,2.8,0.01,4.28,0.58,6.14c0.45,1.49,1.01,3.33,1.3,6.39c0.69,7.12-0.29,13.54-2.91,19.1c-2.16,4.58-5.46,8.66-9.8,12.13
				c-2.18,1.74-4.11,2.84-5.81,3.82c-2.54,1.45-4.93,2.82-7.92,5.83C301.35,210.52,299.67,212.64,298.21,214.94z"/>
			<path d="M328.63,125.14c-0.62,0.72-1.23,1.49-1.84,2.31c-5.05,6.89-6.51,14.14-4.23,20.97l0.62,1.87l1.42-1.36
				c1-0.95,3.52-3.75,7.1-10.46c-0.11,1.38-0.29,2.74-0.56,4.08c-0.61,3.11-1.45,5.08-2.19,6.82l-0.03,0.07
				c-0.72,1.73-1.41,3.37-1.76,5.7c-0.45,2.95,0.01,4.48,0.6,6.43c0.44,1.45,0.98,3.25,1.27,6.26c0.68,7-0.28,13.32-2.85,18.77
				c-2.12,4.49-5.36,8.5-9.63,11.91c-2.15,1.71-4.05,2.8-5.73,3.76c-2.46,1.41-5.01,2.87-8.05,5.93c-1.64,1.65-3.14,3.47-4.47,5.45
				c-0.46-1.16-0.98-3.06-0.86-5.57c0.19-4.15,2.2-10.83,10.66-19.08c7.13-6.95,7.02-16.66,6.89-26.94
				c-0.09-7.39-0.18-15.03,2.45-22.24C319.55,134.04,323.24,129.19,328.63,125.14 M335.72,119.4c-0.05,0-0.11,0.01-0.16,0.04
				c-22.18,11.14-21.98,27.88-21.81,42.64c0.12,10.01,0.23,19.45-6.52,26.03c-16.96,16.53-9.38,27.46-9.31,27.58
				c0.06,0.09,0.17,0.14,0.29,0.14h0.01c0.12,0,0.22-0.06,0.29-0.17c1.47-2.39,3.2-4.61,5.16-6.57c2.91-2.93,5.28-4.29,7.79-5.73
				c1.83-1.05,3.71-2.14,5.89-3.87c4.42-3.53,7.77-7.68,9.98-12.35c2.67-5.66,3.67-12.2,2.97-19.43c-0.3-3.13-0.87-5-1.32-6.5
				c-0.57-1.86-0.98-3.21-0.57-5.88c0.33-2.21,0.98-3.73,1.71-5.48c0.77-1.81,1.63-3.87,2.26-7.06c0.54-2.69,0.76-5.47,0.67-8.24
				c-0.01-0.16-0.12-0.3-0.28-0.33c-0.02-0.01-0.05-0.01-0.07-0.01c-0.13,0-0.25,0.08-0.31,0.2c-4.5,9.22-7.61,12.65-8.63,13.62
				c-5.23-15.71,11.99-27.87,12.17-27.99c0.15-0.1,0.2-0.31,0.1-0.47C335.96,119.46,335.84,119.4,335.72,119.4L335.72,119.4z"/>
		</g>
	</g>
	<g>
		<g>
			
				<linearGradient id="SVGID_00000102543033012757057050000017824602580599654312_" gradientUnits="userSpaceOnUse" x1="285.9226" y1="173.7791" x2="313.1082" y2="173.7791">
				<stop  offset="0" style="stop-color:#FFF33B"/>
				<stop  offset="0.0595" style="stop-color:#FFE029"/>
				<stop  offset="0.1303" style="stop-color:#FFD217"/>
				<stop  offset="0.2032" style="stop-color:#FEC90E"/>
				<stop  offset="0.2809" style="stop-color:#FDC70C"/>
				<stop  offset="0.5689" style="stop-color:#F3903F"/>
				<stop  offset="0.8276" style="stop-color:#ED683C"/>
				<stop  offset="1" style="stop-color:#B72F2B"/>
			</linearGradient>
			<path style="fill:url(#SVGID_00000102543033012757057050000017824602580599654312_);" d="M294.94,204.44
				c-5.5-3.37-8.53-7.68-8.97-12.79c-0.6-7.07,3.89-14.5,7.76-19.49c2.73-3.51,5.55-6.35,7.2-7.91c-3.44,5.73-5.08,10.16-4.76,12.91
				c0.11,0.9,0.9,1.76,1.66,2.49l0.4,0.38l0.43-0.35c1.96-1.62,3.58-3.51,4.81-5.64c1.03-1.77,1.75-3.62,2.83-8.82
				c0.79-3.77,1.07-5.91,1.29-7.63l0.03-0.2c0.2-1.6,0.34-2.76,0.83-4.52c0.92-3.36,2.48-6.63,4.65-9.75l-0.08,0.56
				c-0.41,2.88-0.97,6.78-1,11.61c-0.03,2.59,0.02,4.95,0.06,7.23l0.01,0.44c0.14,7.78,0.24,13.38-2.16,17.74
				c-1.5,2.75-2.83,3.89-4.36,5.21c-1.78,1.54-3.75,3.25-6.67,7.62C296.22,197.55,295.44,201.65,294.94,204.44z"/>
			<path d="M312.09,145.87c-0.34,2.56-0.67,5.71-0.69,9.4c-0.03,2.59,0.01,4.95,0.05,7.22l0.01,0.46l0,0.03
				c0.14,7.65,0.23,13.18-2.09,17.4c-1.45,2.65-2.67,3.7-4.22,5.04l-0.03,0.02c-1.77,1.54-3.79,3.28-6.75,7.72
				c-2.47,3.71-3.37,7.47-3.89,10.24c-4.85-3.2-7.5-7.17-7.9-11.81c-0.58-6.87,3.83-14.16,7.63-19.06c1.34-1.73,2.71-3.29,3.95-4.62
				c-2,3.96-2.88,7.09-2.61,9.32c0.14,1.09,1.01,2.06,1.85,2.86l0.8,0.76l0.85-0.7c2.02-1.66,3.68-3.62,4.95-5.81
				c1.06-1.83,1.8-3.73,2.9-9c0.8-3.79,1.07-5.95,1.3-7.68l0.03-0.21c0.19-1.57,0.34-2.71,0.81-4.43
				C309.73,150.59,310.75,148.19,312.09,145.87 M313.53,141.71c-0.11,0-0.21,0.05-0.28,0.14c-2.55,3.45-4.36,7.1-5.39,10.86
				c-0.5,1.8-0.64,2.97-0.84,4.61c-0.22,1.73-0.49,3.89-1.3,7.78c-1.07,5.1-1.77,6.91-2.76,8.63c-1.19,2.06-2.76,3.9-4.67,5.47
				c-0.74-0.7-1.39-1.44-1.47-2.11c-0.24-2,0.57-6.1,5.71-14.21c0.1-0.14,0.07-0.33-0.06-0.45c-0.07-0.06-0.15-0.08-0.23-0.08
				s-0.16,0.03-0.23,0.08c-0.05,0.03-4.5,3.87-8.76,9.34c-3.94,5.08-8.51,12.66-7.89,19.93c0.46,5.41,3.7,9.95,9.61,13.47
				c0.06,0.03,0.12,0.05,0.18,0.05c0.05,0,0.1-0.01,0.15-0.03c0.1-0.05,0.17-0.14,0.2-0.26l0.03-0.18c0.49-2.74,1.24-6.89,3.9-10.89
				c2.88-4.33,4.84-6.01,6.55-7.49c1.58-1.36,2.94-2.54,4.5-5.39c2.48-4.51,2.38-10.19,2.24-18.05c-0.04-2.41-0.09-4.9-0.06-7.65
				c0.03-4.81,0.59-8.69,1-11.53c0.08-0.61,0.17-1.16,0.23-1.65c0.02-0.16-0.07-0.31-0.22-0.37
				C313.62,141.72,313.57,141.71,313.53,141.71L313.53,141.71z"/>
		</g>
	</g>
	<g>
		<g>
			
				<linearGradient id="SVGID_00000098908219780665012380000011625655081537778587_" gradientUnits="userSpaceOnUse" x1="313.1478" y1="183.8134" x2="341.7311" y2="183.8134">
				<stop  offset="0" style="stop-color:#FFF33B"/>
				<stop  offset="0.0595" style="stop-color:#FFE029"/>
				<stop  offset="0.1303" style="stop-color:#FFD217"/>
				<stop  offset="0.2032" style="stop-color:#FEC90E"/>
				<stop  offset="0.2809" style="stop-color:#FDC70C"/>
				<stop  offset="0.5689" style="stop-color:#F3903F"/>
				<stop  offset="0.8276" style="stop-color:#ED683C"/>
				<stop  offset="1" style="stop-color:#B72F2B"/>
			</linearGradient>
			<path style="fill:url(#SVGID_00000098908219780665012380000011625655081537778587_);" d="M313.22,204.54
				c-0.02,0-0.05-0.01-0.06-0.03c-0.02-0.05-0.01-0.09,0.02-0.1c7.58-3.91,12.7-8.86,15.22-14.71c1.06-2.47,1.56-4.77,2.08-7.21
				c0.76-3.6,1.55-7.32,4.35-11.75c1.8-2.86,4.08-5.43,6.78-7.64l0.09,0c0.02,0.02,0.04,0.06,0.02,0.09
				c-2.2,3.28-3.99,6.8-5.32,10.46c-1.71,4.71-2.13,8.15-2.5,11.18c-0.33,2.71-0.61,5.03-1.76,7.47
				c-2.65,5.66-9.02,9.78-18.91,12.25L313.22,204.54z"/>
			<path d="M339.08,166.3c-1.28,2.29-2.37,4.68-3.26,7.13c-1.74,4.78-2.16,8.25-2.53,11.31l0,0.03c-0.32,2.63-0.6,4.89-1.7,7.25
				c-2.16,4.61-6.9,8.17-14.11,10.63c5.54-3.57,9.4-7.83,11.51-12.71c1.09-2.53,1.59-4.86,2.12-7.33c0.75-3.55,1.52-7.21,4.27-11.54
				C336.44,169.37,337.68,167.77,339.08,166.3 M341.66,162.45c-0.16,0-0.32,0.05-0.44,0.16c-2.75,2.26-5.07,4.88-6.91,7.79
				c-2.85,4.5-3.66,8.29-4.44,11.95c-0.52,2.41-1,4.68-2.04,7.1c-2.46,5.71-7.49,10.56-14.93,14.4c-0.31,0.16-0.45,0.54-0.33,0.87
				c0.1,0.28,0.36,0.45,0.65,0.45c0.06,0,0.11-0.01,0.17-0.02c10.09-2.51,16.59-6.75,19.33-12.59c1.19-2.55,1.48-4.92,1.81-7.66
				c0.36-3,0.77-6.4,2.46-11.04c1.31-3.61,3.08-7.08,5.25-10.32c0.2-0.29,0.15-0.67-0.11-0.91
				C341.99,162.51,341.83,162.45,341.66,162.45L341.66,162.45z"/>
		</g>
	</g>
	<g>
		<g>
			
				<linearGradient id="SVGID_00000115474364369889574700000011361952455918018705_" gradientUnits="userSpaceOnUse" x1="301.864" y1="207.0043" x2="329.4349" y2="207.0043">
				<stop  offset="0" style="stop-color:#FFF33B"/>
				<stop  offset="0.0595" style="stop-color:#FFE029"/>
				<stop  offset="0.1303" style="stop-color:#FFD217"/>
				<stop  offset="0.2032" style="stop-color:#FEC90E"/>
				<stop  offset="0.2809" style="stop-color:#FDC70C"/>
				<stop  offset="0.5689" style="stop-color:#F3903F"/>
				<stop  offset="0.8276" style="stop-color:#ED683C"/>
				<stop  offset="1" style="stop-color:#B72F2B"/>
			</linearGradient>
			<path style="fill:url(#SVGID_00000115474364369889574700000011361952455918018705_);" d="M301.86,213.94
				c0.75-1.67,2.11-3.17,3.96-4.34c2.98-1.88,6.36-2.45,9.93-3.04c1.44-0.24,2.93-0.49,4.38-0.83c2.71-0.64,7.07-2.17,9.3-5.66
				c-0.44,1.42-1.08,2.78-1.91,4.03c-2.48,3.71-6.34,6.23-10.61,6.91c-1.43,0.23-2.94,0.29-4.53,0.35
				C308.68,211.5,304.87,211.66,301.86,213.94z"/>
			<path d="M327.36,203.18c-0.11,0.19-0.23,0.38-0.36,0.56c-2.38,3.57-6.09,5.99-10.19,6.64c-1.39,0.22-2.88,0.28-4.46,0.35
				c-2.8,0.11-5.85,0.24-8.56,1.39c0.65-0.73,1.44-1.4,2.36-1.99c2.88-1.82,6.19-2.37,9.7-2.96c1.45-0.24,2.95-0.49,4.42-0.84
				C323.46,205.59,325.74,204.44,327.36,203.18 M330.28,197.14c-0.15,0-0.3,0.08-0.35,0.25c-1.18,4.47-5.8,6.76-9.95,7.74
				c-4.88,1.16-10.14,1.2-14.5,3.96c-2,1.27-3.67,3.04-4.47,5.3c-0.02,0.07-0.02,0.13,0,0.19c-0.01,0.01-0.02,0.02-0.03,0.03
				c-0.26,0.24-0.01,0.59,0.26,0.59c0.08,0,0.16-0.03,0.23-0.1c4.12-3.9,10.42-2.66,15.53-3.47c4.51-0.72,8.5-3.38,11.03-7.18
				c1.37-2.06,2.25-4.41,2.56-6.86c0-0.01,0-0.01,0-0.01c0.01-0.03,0.01-0.06,0.01-0.09C330.65,197.26,330.47,197.14,330.28,197.14
				L330.28,197.14z"/>
		</g>
	</g>
	<g>
		<g>
			
				<linearGradient id="SVGID_00000066473358307964813830000001390874513279347374_" gradientUnits="userSpaceOnUse" x1="304.871" y1="214.1277" x2="316.7836" y2="214.1277">
				<stop  offset="0" style="stop-color:#FFF33B"/>
				<stop  offset="0.0595" style="stop-color:#FFE029"/>
				<stop  offset="0.1303" style="stop-color:#FFD217"/>
				<stop  offset="0.2032" style="stop-color:#FEC90E"/>
				<stop  offset="0.2809" style="stop-color:#FDC70C"/>
				<stop  offset="0.5689" style="stop-color:#F3903F"/>
				<stop  offset="0.8276" style="stop-color:#ED683C"/>
				<stop  offset="1" style="stop-color:#B72F2B"/>
			</linearGradient>
			<path style="fill:url(#SVGID_00000066473358307964813830000001390874513279347374_);" d="M306.46,214.86
				c-0.53,0-1.05,0-1.57-0.01c0,0-0.01,0-0.01,0c1.05-0.41,2.1-0.71,3.14-0.9c1.48-0.28,2.97-0.34,4.74-0.36l0.07,0
				c1.26-0.01,2.62-0.02,3.97-0.19c-1.17,0.43-2.37,0.76-3.58,0.98C310.96,214.8,308.64,214.86,306.46,214.86z"/>
			<path d="M321.79,210.81c-0.06,0-0.11,0.02-0.17,0.05c-0.66,0.45-1.35,0.85-2.07,1.23c-2.11,0.84-4.56,0.86-6.82,0.88
				c-1.63,0.01-3.24,0.07-4.85,0.37c-1.54,0.29-3.01,0.78-4.43,1.44h-0.37c-0.45,0-0.45,0.7,0,0.7c0.08,0,0.15,0,0.23,0
				c1.04,0,2.09,0.01,3.13,0.01c2.3,0,4.61-0.07,6.86-0.49c2.35-0.44,4.63-1.25,6.73-2.38c0.68-0.29,1.33-0.67,1.93-1.15
				c0,0,0.01,0,0.01-0.01c0.02-0.01,0.05-0.03,0.07-0.05C322.31,211.2,322.07,210.81,321.79,210.81L321.79,210.81z"/>
		</g>
	</g>
</g>
<linearGradient id="SVGID_00000125596889006930655830000015743060591081752724_" gradientUnits="userSpaceOnUse" x1="182.0274" y1="142.3748" x2="182.0274" y2="229.6381">
	<stop  offset="0" style="stop-color:#FFF33B"/>
	<stop  offset="0.0595" style="stop-color:#FFE029"/>
	<stop  offset="0.1303" style="stop-color:#FFD217"/>
	<stop  offset="0.2032" style="stop-color:#FEC90E"/>
	<stop  offset="0.2809" style="stop-color:#FDC70C"/>
	<stop  offset="0.5689" style="stop-color:#F3903F"/>
	<stop  offset="0.8276" style="stop-color:#ED683C"/>
	<stop  offset="1" style="stop-color:#B72F2B"/>
</linearGradient>
<path style="fill:url(#SVGID_00000125596889006930655830000015743060591081752724_);" d="M209.43,190.76
	c6.83-20.41-18.07,18.25-26.89,6.69c-5.92-4.72-1.01-11.1,0.99-16.39c-5.14,3.74-10.81,6.63-16.62,9.2
	c-3.95,3.51-4.3,9.91-6.57,14.64c-4.1,8.34-8.3,17.42-15.17,23.79c-8.78,4.56-11.19-8.49-7.63-14.3
	c3.63-10.33,11.51-18.2,19.11-25.76c0.8-1.19,2.07-2.76,1.95-4.26c-2.15,1.1-3.4,3.64-5.22,5.26c-5.02,7.32-15.09,13.32-20.82,3.26
	c-2.26-10.97,6.42-22.53,12.49-31.22c5.43-6.41,26.14-28.2,32.69-15.27c1.66,3.59-0.38,7.83-2.32,10.97
	c-3.49,3.39-7.64-1.26-5.25-5.39c-13.75,8.21-26.16,22.94-29.41,38.93c6.4-4.2,11.71-10.51,16.44-16.6
	c4.29-3.44,8.88-18.96,15.39-13.78c4.61,4.03,1.87,8.91,0.03,13.58c-0.18,1.28-3.39,5.39-1.44,5.15
	c10.07-3.5,20.06-19.76,24.02-1.65c1.46,4.81-4.32,7.75-6.07,11.76c1.71,3.09,11.79-7.57,14.57-9.16c3.89-2.93,7.92-5.66,11.91-8.46
	c8.15-1.34,7.35,8.47,4.51,13.31c0.47,5.77,7.52-6.44,11.01-3.79C236.72,187.68,209.28,209.23,209.43,190.76z M142.91,218.12
	c0.19,0.39,0.34,0.69,0.49,0.99c2.75-4.4,5.03-9.29,7.11-14.09C145.78,207.29,145.24,213.82,142.91,218.12z"/>
<linearGradient id="SVGID_00000075161658672095145680000005794178441768479399_" gradientUnits="userSpaceOnUse" x1="70.4722" y1="137.2952" x2="70.4722" y2="199.8978">
	<stop  offset="0" style="stop-color:#FFF33B"/>
	<stop  offset="0.0595" style="stop-color:#FFE029"/>
	<stop  offset="0.1303" style="stop-color:#FFD217"/>
	<stop  offset="0.2032" style="stop-color:#FEC90E"/>
	<stop  offset="0.2809" style="stop-color:#FDC70C"/>
	<stop  offset="0.5689" style="stop-color:#F3903F"/>
	<stop  offset="0.8276" style="stop-color:#ED683C"/>
	<stop  offset="1" style="stop-color:#B72F2B"/>
</linearGradient>
<path style="fill:url(#SVGID_00000075161658672095145680000005794178441768479399_);" d="M64.64,145.28
	c-9.3-1.29-30.92,39.28-29.79,49.01c0.14,10.79-14.06,4.09-10.77-4.05c7.01-33.47,41.83-50.14,13.3-40.44
	c-4.58,1.21-8.71,3.47-12.66,6.03c-1.57,1.24-2.84,4.04-5.21,2.36c-4.08-2.48-0.68-8.74,2.93-9.9
	c16.56-8.09,34.66-10.56,52.89-10.99c8.08,0.32,6.74,12.42,4.77,17.78c-2.6,8.79-9.57,15.17-14.27,22.6
	c4.76-2.95,13.04-9.47,17.4-2.61c1.98,3.08-1.94,9.08-0.92,10.59c3.57-2.84,6.78-6.31,11.45-6.23c1.94-2.87,4.05-5.59,7.43-6.79
	c4.73-2.18,17.28-3.63,14.06,4.96c-4.48,5.33-11.76,7.72-16.59,12.79c7.71-0.15,14.14-6.74,20.1-11.11
	c6.39-4.96,5.39,6.33,1.12,8.27c-9.03,8.62-23.55,17.31-31.08,2.58c-3.16,1.85-5.84,4.4-8.87,6.43c-8.25,2.67-8.49-8.9-6.49-14.26
	c-6.93,0.31-12.84,11.5-19.08,15.77c-5.32,1.52-5.2-6.23-3.42-9.43c-2.38-3.26-1.74-6.97,1.72-9.48
	c9.3-7.63,11.09-21.09,18.31-30.52C74.49,144.65,66.98,145.34,64.64,145.28z M108.79,176.94c-3.42-1.09-9.72,3.16-9.52,7.03
	C102.57,182,105.98,179.52,108.79,176.94z"/>
<linearGradient id="SVGID_00000008131673558548490180000007801387161741189013_" gradientUnits="userSpaceOnUse" x1="260.3074" y1="142.1061" x2="260.3074" y2="198.1372">
	<stop  offset="0" style="stop-color:#FFF33B"/>
	<stop  offset="0.0595" style="stop-color:#FFE029"/>
	<stop  offset="0.1303" style="stop-color:#FFD217"/>
	<stop  offset="0.2032" style="stop-color:#FEC90E"/>
	<stop  offset="0.2809" style="stop-color:#FDC70C"/>
	<stop  offset="0.5689" style="stop-color:#F3903F"/>
	<stop  offset="0.8276" style="stop-color:#ED683C"/>
	<stop  offset="1" style="stop-color:#B72F2B"/>
</linearGradient>
<path style="fill:url(#SVGID_00000008131673558548490180000007801387161741189013_);" d="M232.32,186.77
	c2.81-16.22,13.32-34.63,26.32-44.67c13.85-0.16,2.12,16.73-1.36,22.76c-4.06,8.09-10.16,16.32-16.46,21.43
	c-1.5,11.4,9.2-4.31,12.5-6.39c1.15-1.66,3.74-1.01,4.64-2.95c2.68-7.39,18.35-38.51,27.34-34.42
	c11.63,3.62-14.08,37.31-19.21,42.31c-0.48,0.36-1.29,0.64-1.39,1.08c-2.15,9.91,5.92-0.56,8.82-2.84
	c6.85-8.94,11.27-2.44,5.72,4.91c-9.06,9.58-17.97,16.31-24.5,1.48C247.23,198.62,232.5,203.49,232.32,186.77z M259.5,152.11
	c-1.65-4.19-17.19,21.31-16.83,23.97C249.75,169.69,255.37,160.89,259.5,152.11z M282.59,152.31c-0.73-4.75-17.38,21.05-16.58,23.68
	C272.92,169.68,278.81,161.02,282.59,152.31z"/>
<linearGradient id="SVGID_00000076594530545787669890000011251929047858278301_" gradientUnits="userSpaceOnUse" x1="224.6617" y1="155.4404" x2="224.6617" y2="165.5615">
	<stop  offset="0" style="stop-color:#FFF33B"/>
	<stop  offset="0.2118" style="stop-color:#FFE029"/>
	<stop  offset="0.4638" style="stop-color:#FFD217"/>
	<stop  offset="0.7234" style="stop-color:#FEC90E"/>
	<stop  offset="1" style="stop-color:#FDC70C"/>
</linearGradient>
<path style="fill:url(#SVGID_00000076594530545787669890000011251929047858278301_);" d="M224.75,165.56
	c-5.62-0.26-6.28-10.08-0.21-10.12C230.22,155.69,230.85,165.28,224.75,165.56z"/>
<path class="st12" d="M64.64,145.28c-9.3-1.29-30.92,39.28-29.79,49.01c0.14,10.79-14.06,4.09-10.77-4.05
	c7.01-33.47,41.83-50.14,13.3-40.44c-4.58,1.21-8.71,3.47-12.66,6.03c-1.57,1.24-2.84,4.04-5.21,2.36c-4.08-2.48-0.68-8.74,2.93-9.9
	c16.56-8.09,34.66-10.56,52.89-10.99c8.08,0.32,6.74,12.42,4.77,17.78c-2.6,8.79-9.57,15.17-14.27,22.6
	c4.76-2.95,13.04-9.47,17.4-2.61c1.98,3.08-1.94,9.08-0.92,10.59c3.57-2.84,6.78-6.31,11.45-6.23c1.94-2.87,4.05-5.59,7.43-6.79
	c4.73-2.18,17.28-3.63,14.06,4.96c-4.48,5.33-11.76,7.72-16.59,12.79c7.71-0.15,14.14-6.74,20.1-11.11
	c6.39-4.96,5.39,6.33,1.12,8.27c-9.03,8.62-23.55,17.31-31.08,2.58c-3.16,1.85-5.84,4.4-8.87,6.43c-8.25,2.67-8.49-8.9-6.49-14.26
	c-6.93,0.31-12.84,11.5-19.08,15.77c-5.32,1.52-5.2-6.23-3.42-9.43c-2.38-3.26-1.74-6.97,1.72-9.48
	c9.3-7.63,11.09-21.09,18.31-30.52C74.49,144.65,66.98,145.34,64.64,145.28z M108.79,176.94c-3.42-1.09-9.72,3.16-9.52,7.03
	C102.57,182,105.98,179.52,108.79,176.94z"/>
<path class="st12" d="M209.43,190.76c6.83-20.41-18.07,18.25-26.89,6.69c-5.92-4.72-1.01-11.1,0.99-16.39
	c-5.14,3.74-10.81,6.63-16.62,9.2c-3.95,3.51-4.3,9.91-6.57,14.64c-4.1,8.34-8.3,17.42-15.17,23.79c-8.78,4.56-11.19-8.49-7.63-14.3
	c3.63-10.33,11.51-18.2,19.11-25.76c0.8-1.19,2.07-2.76,1.95-4.26c-2.15,1.1-3.4,3.64-5.22,5.26c-5.02,7.32-15.09,13.32-20.82,3.26
	c-2.26-10.97,6.42-22.53,12.49-31.22c5.43-6.41,26.14-28.2,32.69-15.27c1.66,3.59-0.38,7.83-2.32,10.97
	c-3.49,3.39-7.64-1.26-5.25-5.39c-13.75,8.21-26.16,22.94-29.41,38.93c6.4-4.2,11.71-10.51,16.44-16.6
	c4.29-3.44,8.88-18.96,15.39-13.78c4.61,4.03,1.87,8.91,0.03,13.58c-0.18,1.28-3.39,5.39-1.44,5.15
	c10.07-3.5,20.06-19.76,24.02-1.65c1.46,4.81-4.32,7.75-6.07,11.76c1.71,3.09,11.79-7.57,14.57-9.16c3.89-2.93,7.92-5.66,11.91-8.46
	c8.15-1.34,7.35,8.47,4.51,13.31c0.47,5.77,7.52-6.44,11.01-3.79C236.72,187.68,209.28,209.23,209.43,190.76z M142.91,218.12
	c0.19,0.39,0.34,0.69,0.49,0.99c2.75-4.4,5.03-9.29,7.11-14.09C145.78,207.29,145.24,213.82,142.91,218.12z"/>
<path class="st12" d="M232.32,186.77c2.81-16.22,13.32-34.63,26.32-44.67c13.85-0.16,2.12,16.73-1.36,22.76
	c-4.06,8.09-10.16,16.32-16.46,21.43c-1.5,11.4,9.2-4.31,12.5-6.39c1.15-1.66,3.74-1.01,4.64-2.95
	c2.68-7.39,18.35-38.51,27.34-34.42c11.63,3.62-14.08,37.31-19.21,42.31c-0.48,0.36-1.29,0.64-1.39,1.08
	c-2.15,9.91,5.92-0.56,8.82-2.84c6.85-8.94,11.27-2.44,5.72,4.91c-9.06,9.58-17.97,16.31-24.5,1.48
	C247.23,198.62,232.5,203.49,232.32,186.77z M259.5,152.11c-1.65-4.19-17.19,21.31-16.83,23.97
	C249.75,169.69,255.37,160.89,259.5,152.11z M282.59,152.31c-0.73-4.75-17.38,21.05-16.58,23.68
	C272.92,169.68,278.81,161.02,282.59,152.31z"/>
<path class="st12" d="M224.75,165.56c-5.62-0.26-6.28-10.08-0.21-10.12C230.22,155.69,230.85,165.28,224.75,165.56z"/>
<g>
	<path class="st13" d="M187.06,244.13c-1.57,0-3.03-0.27-4.39-0.82c-1.36-0.54-2.55-1.31-3.59-2.3c-1.03-0.99-1.84-2.17-2.43-3.54
		c-0.58-1.37-0.88-2.88-0.88-4.53c0-1.65,0.29-3.16,0.88-4.53c0.58-1.37,1.4-2.55,2.43-3.54c1.04-0.99,2.23-1.76,3.59-2.3
		c1.36-0.54,2.82-0.82,4.39-0.82c1.57,0,3.04,0.27,4.4,0.82c1.37,0.54,2.57,1.31,3.59,2.3c1.02,0.99,1.83,2.17,2.41,3.54
		c0.59,1.37,0.88,2.88,0.88,4.53c0,1.65-0.29,3.16-0.88,4.53c-0.58,1.37-1.39,2.55-2.43,3.54c-1.03,0.99-2.23,1.76-3.59,2.3
		C190.09,243.86,188.63,244.13,187.06,244.13z M187.06,239.46c1.15,0,2.15-0.28,3.01-0.85c0.86-0.57,1.53-1.34,2.01-2.32
		c0.48-0.98,0.72-2.1,0.72-3.35c0-1.27-0.24-2.4-0.72-3.37c-0.48-0.97-1.15-1.74-2.01-2.3c-0.86-0.56-1.86-0.85-3.01-0.85
		c-1.17,0-2.18,0.28-3.04,0.85c-0.86,0.57-1.52,1.33-1.99,2.3c-0.47,0.97-0.71,2.1-0.71,3.37c0,1.25,0.23,2.37,0.71,3.35
		c0.47,0.98,1.13,1.76,1.99,2.32C184.88,239.18,185.89,239.46,187.06,239.46z"/>
	<path class="st13" d="M220.04,221.97v21.94h-5.49l-8.18-13.29v13.29h-5.45v-21.94h5.49l8.18,13.39v-13.39H220.04z"/>
	<path class="st13" d="M231.42,221.97h19.09v4.58h-6.83v17.37h-5.45v-17.37h-6.8V221.97z"/>
	<path class="st13" d="M253.08,221.97h5.45v8.53h8.28v-8.53h5.45v21.94h-5.45v-8.84h-8.28v8.84h-5.45V221.97z"/>
	<path class="st13" d="M275.72,221.97h5.45v21.94h-5.45V221.97z"/>
	<path class="st13" d="M298.26,235.72c0.03-0.01,0.06-0.02,0.09-0.03c1.02-0.41,1.87-0.96,2.52-1.65c0.66-0.69,1.15-1.46,1.48-2.32
		c0.32-0.86,0.48-1.72,0.48-2.6c0-1.28-0.3-2.46-0.89-3.54c-0.6-1.09-1.49-1.96-2.7-2.62c-1.2-0.66-2.71-0.99-4.52-0.99h-10.1v21.94
		h5.45v-7.61h2.78l4.37,7.61h6.02L298.26,235.72z M290.07,226.55h4.3c0.98,0,1.71,0.23,2.19,0.69s0.72,1.08,0.72,1.88
		c0,0.54-0.11,1.01-0.32,1.41c-0.22,0.4-0.55,0.69-0.98,0.89s-0.96,0.3-1.61,0.3h-4.3V226.55z"/>
	<path class="st13" d="M314.81,221.97c2.36,0,4.41,0.46,6.13,1.38c1.72,0.92,3.06,2.21,4.01,3.86c0.95,1.65,1.43,3.56,1.43,5.74
		c0,2.15-0.47,4.06-1.43,5.71c-0.95,1.65-2.29,2.94-4.01,3.87c-1.72,0.93-3.77,1.4-6.13,1.4h-8.96v-21.94H314.81z M314.46,239.34
		c1.98,0,3.54-0.58,4.67-1.72c1.13-1.15,1.69-2.71,1.69-4.67c0-1.98-0.57-3.55-1.69-4.69c-1.13-1.14-2.69-1.71-4.67-1.71h-3.17
		v12.79H314.46z"/>
</g>
</svg>
